<svg width="334" height="58" viewBox="0 0 334 58" fill="none" xmlns="http://www.w3.org/2000/svg">
<g clip-path="url(#clip0_1_729)">
<path d="M0 23.4822L11.2337 31.7302L17.8029 23.4822L26.7034 57.9999H8.90147L0 23.4822Z" fill="url(#paint0_linear_1_729)"/>
<path d="M42.4953 15.9678H24.6923L8.92957 57.9999H26.7325L42.4953 15.9678Z" fill="url(#paint1_linear_1_729)"/>
<path d="M24.6923 15.9678H42.4952L51.4248 50.4855H33.6218L24.6923 15.9678Z" fill="url(#paint2_linear_1_729)"/>
<path d="M55.0276 0C51.0736 3.06809 48.3671 5.16894 44.4131 8.23703L33.6229 50.4856H51.4259L62.0223 8.98977C59.1331 5.27519 57.9188 3.71458 55.0286 0H55.0276Z" fill="url(#paint3_linear_1_729)"/>
<path d="M98.3909 20.7048L93.4926 35.9932H87.96L85.4893 27.8253L82.8871 35.9932H77.3545L72.4562 20.7048H77.77L80.4374 29.3969L83.2584 20.7048H88.0031L90.6706 29.5062L93.4916 20.7048H98.3899H98.3909Z" fill="#1A282C"/>
<path d="M109.412 33.328H103.595L102.568 35.9922H97.3201L104.012 20.7039H109.085L115.776 35.9922H110.44L109.413 33.328H109.412ZM107.991 29.6154L106.504 25.7716L105.016 29.6154H107.99H107.991Z" fill="#1A282C"/>
<path d="M124.719 30.4453V35.9932H119.559V30.3802L113.786 20.7048H119.232L122.359 25.99L125.508 20.7048H130.493L124.72 30.4453H124.719Z" fill="#1A282C"/>
<path d="M136.308 24.5918V27.2129H142.694V31.1009H136.308V35.9932H131.148V20.7048H143.59V24.5928H136.308V24.5918Z" fill="#1A282C"/>
<path d="M155.114 33.328H149.298L148.27 35.9922H143.023L149.714 20.7039H154.787L161.479 35.9922H156.143L155.115 33.328H155.114ZM153.693 29.6154L152.206 25.7716L150.719 29.6154H153.692H153.693Z" fill="#1A282C"/>
<path d="M168.869 32.1493H167.469V35.9932H162.309V20.7048H169.678C171.092 20.7048 172.324 20.9384 173.374 21.4034C174.424 21.8695 175.233 22.5391 175.802 23.4131C176.371 24.2871 176.655 25.3055 176.655 26.4702C176.655 27.5627 176.407 28.5159 175.911 29.3308C175.415 30.1466 174.701 30.7941 173.768 31.2743L176.983 35.9922H171.472L168.87 32.1483L168.869 32.1493ZM170.924 25.1491C170.574 24.8364 170.049 24.68 169.35 24.68H167.469V28.2623H169.35C170.049 28.2623 170.574 28.1059 170.924 27.7932C171.275 27.4805 171.449 27.0395 171.449 26.4722C171.449 25.9048 171.275 25.4638 170.924 25.1511V25.1491Z" fill="#1A282C"/>
<path d="M191.326 32.1052V35.9932H178.599V20.7048H191.041V24.5928H183.672V26.384H190.145V30.0965H183.672V32.1062H191.325L191.326 32.1052Z" fill="#1A282C"/>
<path d="M199.876 32.1493H198.476V35.9932H193.316V20.7048H200.685C202.099 20.7048 203.331 20.9384 204.381 21.4034C205.43 21.8695 206.239 22.5391 206.808 23.4131C207.377 24.2871 207.661 25.3055 207.661 26.4702C207.661 27.5627 207.413 28.5159 206.918 29.3308C206.422 30.1466 205.707 30.7941 204.775 31.2743L207.989 35.9922H202.479L199.877 32.1483L199.876 32.1493ZM201.931 25.1491C201.581 24.8364 201.056 24.68 200.356 24.68H198.476V28.2623H200.356C201.056 28.2623 201.581 28.1059 201.931 27.7932C202.281 27.4805 202.456 27.0395 202.456 26.4722C202.456 25.9048 202.281 25.4638 201.931 25.1511V25.1491Z" fill="#1A282C"/>
<path d="M216.735 20.7058H220.278V33.1105H227.953V35.9931H216.735V20.7058Z" fill="#1A282C"/>
<path d="M232.795 35.2283C231.52 34.5437 230.521 33.6015 229.8 32.3998C229.078 31.199 228.717 29.8479 228.717 28.3484C228.717 26.8489 229.078 25.4988 229.8 24.297C230.521 23.0963 231.52 22.1531 232.795 21.4685C234.071 20.7839 235.503 20.4421 237.092 20.4421C238.682 20.4421 240.11 20.7849 241.378 21.4685C242.647 22.1531 243.644 23.0953 244.374 24.297C245.103 25.4978 245.467 26.8489 245.467 28.3484C245.467 29.8479 245.103 31.198 244.374 32.3998C243.644 33.6005 242.647 34.5437 241.378 35.2283C240.11 35.9129 238.681 36.2547 237.092 36.2547C235.504 36.2547 234.071 35.9129 232.795 35.2283ZM239.541 32.6183C240.27 32.2033 240.842 31.625 241.257 30.8823C241.672 30.1395 241.88 29.2956 241.88 28.3494C241.88 27.4032 241.672 26.5583 241.257 25.8156C240.842 25.0728 240.27 24.4945 239.541 24.0795C238.812 23.6646 237.995 23.4571 237.092 23.4571C236.189 23.4571 235.372 23.6646 234.644 24.0795C233.914 24.4945 233.343 25.0728 232.928 25.8156C232.512 26.5583 232.304 27.4022 232.304 28.3494C232.304 29.2966 232.512 30.1405 232.928 30.8823C233.343 31.624 233.915 32.2033 234.644 32.6183C235.372 33.0332 236.188 33.2407 237.092 33.2407C237.996 33.2407 238.812 33.0332 239.541 32.6183Z" fill="#1A282C"/>
<path d="M258.477 28.1089H261.713V34.3112C260.882 34.9376 259.92 35.4177 258.827 35.7525C257.734 36.0873 256.633 36.2547 255.526 36.2547C253.937 36.2547 252.508 35.9159 251.239 35.2393C249.971 34.5628 248.976 33.6236 248.255 32.4218C247.533 31.221 247.172 29.8629 247.172 28.3484C247.172 26.8339 247.533 25.4768 248.255 24.275C248.976 23.0742 249.978 22.1351 251.261 21.4575C252.544 20.7809 253.987 20.4421 255.591 20.4421C256.932 20.4421 258.149 20.6677 259.243 21.1187C260.336 21.5697 261.255 22.2253 261.997 23.0842L259.723 25.1811C258.631 24.0314 257.311 23.4561 255.765 23.4561C254.789 23.4561 253.921 23.6606 253.163 24.0675C252.405 24.4755 251.814 25.0498 251.392 25.7925C250.969 26.5352 250.758 27.3872 250.758 28.3474C250.758 29.3076 250.968 30.1385 251.392 30.8803C251.814 31.623 252.401 32.2013 253.152 32.6163C253.903 33.0312 254.759 33.2387 255.721 33.2387C256.742 33.2387 257.66 33.0202 258.476 32.5832V28.1058L258.477 28.1089Z" fill="#1A282C"/>
<path d="M264.993 20.7058H268.535V35.9931H264.993V20.7058Z" fill="#1A282C"/>
<path d="M273.684 35.7635C272.554 35.4357 271.646 35.0097 270.961 34.4855L272.163 31.8214C272.82 32.3015 273.598 32.6874 274.503 32.9791C275.406 33.2707 276.31 33.4161 277.214 33.4161C278.22 33.4161 278.963 33.2667 279.444 32.968C279.925 32.6693 280.166 32.2724 280.166 31.7773C280.166 31.4134 280.023 31.1107 279.739 30.8712C279.455 30.6306 279.091 30.4382 278.646 30.2928C278.202 30.1475 277.601 29.9871 276.842 29.8127C275.676 29.5361 274.721 29.2595 273.978 28.9828C273.234 28.7062 272.597 28.2622 272.065 27.6507C271.533 27.0393 271.267 26.2244 271.267 25.2051C271.267 24.317 271.508 23.5122 271.989 22.7915C272.469 22.0709 273.195 21.4995 274.164 21.0776C275.134 20.6556 276.318 20.4441 277.718 20.4441C278.694 20.4441 279.65 20.5604 280.582 20.7939C281.514 21.0274 282.331 21.3622 283.031 21.7982L281.938 24.4844C280.524 23.6836 279.11 23.2837 277.696 23.2837C276.704 23.2837 275.972 23.444 275.498 23.7638C275.024 24.0845 274.788 24.5065 274.788 25.0307C274.788 25.5549 275.061 25.9448 275.607 26.1994C276.154 26.454 276.988 26.7056 278.111 26.9531C279.277 27.2298 280.232 27.5064 280.975 27.783C281.719 28.0597 282.356 28.4967 282.888 29.0931C283.42 29.6905 283.686 30.4983 283.686 31.5167C283.686 32.3907 283.442 33.1875 282.953 33.9082C282.465 34.6289 281.732 35.2002 280.756 35.6222C279.779 36.0441 278.591 36.2556 277.191 36.2556C275.981 36.2556 274.811 36.0922 273.682 35.7645L273.684 35.7635Z" fill="#1A282C"/>
<path d="M289.066 23.5885H284.168V20.7058H297.506V23.5885H292.608V35.9931H289.065V23.5885H289.066Z" fill="#1A282C"/>
<path d="M299.409 20.7058H302.951V35.9931H299.409V20.7058Z" fill="#1A282C"/>
<path d="M309.675 35.2393C308.414 34.5628 307.423 33.6236 306.701 32.4218C305.98 31.221 305.619 29.8629 305.619 28.3484C305.619 26.8339 305.98 25.4768 306.701 24.275C307.423 23.0742 308.415 22.1351 309.675 21.4575C310.935 20.7809 312.353 20.4421 313.928 20.4421C315.255 20.4421 316.454 20.6757 317.525 21.1408C318.597 21.6068 319.496 22.2764 320.225 23.1494L317.951 25.2462C316.916 24.0525 315.633 23.4551 314.103 23.4551C313.155 23.4551 312.309 23.6626 311.567 24.0775C310.824 24.4925 310.244 25.0708 309.829 25.8135C309.413 26.5563 309.205 27.4002 309.205 28.3474C309.205 29.2946 309.413 30.1385 309.829 30.8803C310.244 31.622 310.823 32.2013 311.567 32.6163C312.31 33.0312 313.155 33.2387 314.103 33.2387C315.633 33.2387 316.916 32.6343 317.951 31.4265L320.225 33.5234C319.497 34.4114 318.593 35.089 317.514 35.5541C316.435 36.0201 315.232 36.2527 313.906 36.2527C312.346 36.2527 310.935 35.9139 309.675 35.2373V35.2393Z" fill="#1A282C"/>
<path d="M323.997 35.7635C322.867 35.4357 321.959 35.0097 321.274 34.4855L322.476 31.8214C323.133 32.3015 323.911 32.6874 324.815 32.9791C325.719 33.2707 326.623 33.4161 327.527 33.4161C328.533 33.4161 329.276 33.2667 329.757 32.968C330.238 32.6693 330.478 32.2724 330.478 31.7773C330.478 31.4134 330.336 31.1107 330.052 30.8712C329.768 30.6306 329.404 30.4382 328.959 30.2928C328.515 30.1475 327.913 29.9871 327.155 29.8127C325.989 29.5361 325.034 29.2595 324.291 28.9828C323.547 28.7062 322.91 28.2622 322.378 27.6507C321.846 27.0393 321.58 26.2244 321.58 25.2051C321.58 24.317 321.821 23.5122 322.302 22.7915C322.782 22.0709 323.508 21.4995 324.477 21.0776C325.447 20.6556 326.631 20.4441 328.031 20.4441C329.007 20.4441 329.963 20.5604 330.895 20.7939C331.827 21.0274 332.644 21.3622 333.344 21.7982L332.251 24.4844C330.837 23.6836 329.423 23.2837 328.009 23.2837C327.017 23.2837 326.285 23.444 325.811 23.7638C325.337 24.0845 325.1 24.5065 325.1 25.0307C325.1 25.5549 325.373 25.9448 325.92 26.1994C326.467 26.454 327.301 26.7056 328.424 26.9531C329.59 27.2298 330.545 27.5064 331.288 27.783C332.032 28.0597 332.669 28.4967 333.201 29.0931C333.733 29.6905 333.999 30.4983 333.999 31.5167C333.999 32.3907 333.755 33.1875 333.266 33.9082C332.778 34.6289 332.045 35.2002 331.069 35.6222C330.092 36.0441 328.904 36.2556 327.504 36.2556C326.294 36.2556 325.124 36.0922 323.995 35.7645L323.997 35.7635Z" fill="#1A282C"/>
<path d="M210.068 44.1471H207.818V43.5627H212.996V44.1471H210.746V49.9585H210.069V44.1471H210.068Z" fill="#5B5B5B"/>
<path d="M218.447 49.9575L216.983 47.9018C216.819 47.9198 216.648 47.9289 216.471 47.9289H214.751V49.9575H214.074V43.5618H216.47C217.287 43.5618 217.928 43.7572 218.391 44.1461C218.855 44.536 219.087 45.0723 219.087 45.7538C219.087 46.253 218.96 46.675 218.707 47.0188C218.454 47.3626 218.093 47.6111 217.624 47.7635L219.188 49.9565H218.447V49.9575ZM217.908 46.9336C218.243 46.6539 218.41 46.261 218.41 45.7548C218.41 45.2487 218.243 44.8397 217.908 44.5621C217.572 44.2854 217.088 44.1461 216.453 44.1461H214.751V47.3535H216.453C217.088 47.3535 217.572 47.2132 217.908 46.9336Z" fill="#5B5B5B"/>
<path d="M224.705 48.2496H221.137L220.368 49.9585H219.664L222.591 43.5627H223.26L226.187 49.9585H225.473L224.705 48.2496ZM224.458 47.7013L222.921 44.2654L221.385 47.7013H224.459H224.458Z" fill="#5B5B5B"/>
<path d="M232.599 43.5618V49.9575H232.042L227.925 44.7676V49.9575H227.248V43.5618H227.806L231.931 48.7518V43.5618H232.598H232.599Z" fill="#5B5B5B"/>
<path d="M235.083 49.7841C234.647 49.6317 234.311 49.4313 234.073 49.1807L234.338 48.6595C234.57 48.891 234.878 49.0785 235.262 49.2218C235.646 49.3651 236.043 49.4363 236.451 49.4363C237.024 49.4363 237.455 49.331 237.741 49.1216C238.028 48.9111 238.17 48.6385 238.17 48.3037C238.17 48.0481 238.093 47.8436 237.937 47.6913C237.782 47.5389 237.591 47.4216 237.365 47.3394C237.14 47.2573 236.826 47.167 236.423 47.0698C235.941 46.9485 235.557 46.8313 235.27 46.718C234.983 46.6058 234.738 46.4334 234.533 46.2018C234.329 45.9703 234.227 45.6566 234.227 45.2606C234.227 44.9379 234.313 44.6442 234.483 44.3786C234.654 44.114 234.916 43.9025 235.27 43.7441C235.623 43.5858 236.063 43.5066 236.588 43.5066C236.954 43.5066 237.312 43.5567 237.662 43.6569C238.013 43.7572 238.317 43.8965 238.573 44.0729L238.344 44.6121C238.076 44.4357 237.789 44.3034 237.484 44.2142C237.179 44.126 236.88 44.0819 236.588 44.0819C236.027 44.0819 235.604 44.1902 235.321 44.4067C235.037 44.6232 234.896 44.9018 234.896 45.2426C234.896 45.4982 234.974 45.7037 235.129 45.859C235.285 46.0144 235.48 46.1337 235.715 46.2159C235.949 46.298 236.265 46.3882 236.661 46.4855C237.131 46.6007 237.51 46.715 237.8 46.8283C238.09 46.9405 238.335 47.1119 238.537 47.3394C238.738 47.568 238.839 47.8767 238.839 48.2666C238.839 48.5893 238.751 48.883 238.578 49.1486C238.404 49.4132 238.137 49.6237 237.777 49.7791C237.417 49.9344 236.975 50.0116 236.45 50.0116C235.974 50.0116 235.519 49.9354 235.082 49.7831L235.083 49.7841Z" fill="#5B5B5B"/>
<path d="M244.629 44.1471C245.093 44.537 245.325 45.0732 245.325 45.7548C245.325 46.4364 245.093 46.9716 244.629 47.3585C244.165 47.7454 243.525 47.9389 242.708 47.9389H240.988V49.9585H240.311V43.5627H242.707C243.524 43.5627 244.164 43.7582 244.628 44.1471H244.629ZM244.144 46.9295C244.48 46.6529 244.647 46.261 244.647 45.7558C244.647 45.2506 244.48 44.8407 244.144 44.5631C243.809 44.2864 243.324 44.1471 242.69 44.1471H240.988V47.3455H242.69C243.324 47.3455 243.809 47.2072 244.144 46.9295Z" fill="#5B5B5B"/>
<path d="M247.955 49.5876C247.439 49.304 247.037 48.9161 246.748 48.4229C246.458 47.9298 246.313 47.3755 246.313 46.7601C246.313 46.1447 246.458 45.5904 246.748 45.0972C247.038 44.6041 247.44 44.2152 247.955 43.9325C248.47 43.6489 249.045 43.5076 249.679 43.5076C250.313 43.5076 250.885 43.6479 251.394 43.9275C251.903 44.2082 252.304 44.5961 252.597 45.0922C252.89 45.5884 253.037 46.1447 253.037 46.7601C253.037 47.3755 252.89 47.9308 252.597 48.4279C252.304 48.9251 251.904 49.313 251.394 49.5926C250.884 49.8733 250.313 50.0126 249.679 50.0126C249.045 50.0126 248.47 49.8713 247.955 49.5876ZM251.052 49.0664C251.46 48.8379 251.78 48.5211 252.012 48.1162C252.244 47.7113 252.359 47.2592 252.359 46.7591C252.359 46.2589 252.243 45.8069 252.012 45.4019C251.78 44.997 251.46 44.6803 251.052 44.4517C250.643 44.2232 250.186 44.109 249.68 44.109C249.174 44.109 248.714 44.2232 248.303 44.4517C247.892 44.6803 247.568 44.997 247.334 45.4019C247.099 45.8069 246.981 46.2589 246.981 46.7591C246.981 47.2592 247.099 47.7113 247.334 48.1162C247.568 48.5211 247.892 48.8379 248.303 49.0664C248.714 49.2949 249.173 49.4092 249.68 49.4092C250.187 49.4092 250.643 49.2949 251.052 49.0664Z" fill="#5B5B5B"/>
<path d="M258.928 49.9575L257.463 47.9018C257.299 47.9198 257.128 47.9289 256.952 47.9289H255.232V49.9575H254.554V43.5618H256.951C257.768 43.5618 258.408 43.7572 258.871 44.1461C259.335 44.536 259.567 45.0723 259.567 45.7538C259.567 46.253 259.44 46.675 259.188 47.0188C258.935 47.3626 258.573 47.6111 258.104 47.7635L259.668 49.9565H258.928V49.9575ZM258.388 46.9336C258.723 46.6539 258.891 46.261 258.891 45.7548C258.891 45.2487 258.723 44.8397 258.388 44.5621C258.053 44.2854 257.568 44.1461 256.934 44.1461H255.232V47.3535H256.934C257.568 47.3535 258.053 47.2132 258.388 46.9336Z" fill="#5B5B5B"/>
<path d="M262.322 44.1471H260.072V43.5627H265.25V44.1471H263V49.9585H262.323V44.1471H262.322Z" fill="#5B5B5B"/>
<path d="M266.329 43.5618H267.006V49.9575H266.329V43.5618Z" fill="#5B5B5B"/>
<path d="M274.443 43.5618V49.9575H273.885L269.768 44.7676V49.9575H269.091V43.5618H269.649L273.774 48.7518V43.5618H274.442H274.443Z" fill="#5B5B5B"/>
<path d="M281.039 46.7601H281.688V49.1997C281.389 49.4613 281.036 49.6628 280.626 49.8031C280.218 49.9434 279.787 50.0136 279.337 50.0136C278.696 50.0136 278.12 49.8733 277.608 49.5936C277.096 49.314 276.692 48.9251 276.4 48.4289C276.108 47.9328 275.961 47.3765 275.961 46.7611C275.961 46.1456 276.107 45.5904 276.4 45.0932C276.693 44.5971 277.096 44.2082 277.608 43.9285C278.12 43.6489 278.699 43.5085 279.346 43.5085C279.834 43.5085 280.282 43.5857 280.691 43.7411C281.099 43.8964 281.443 44.126 281.724 44.4307L281.304 44.8597C280.798 44.3605 280.154 44.1109 279.374 44.1109C278.855 44.1109 278.387 44.2252 277.97 44.4537C277.552 44.6823 277.224 44.999 276.986 45.4039C276.749 45.8089 276.629 46.2609 276.629 46.7611C276.629 47.2612 276.749 47.7113 276.986 48.1132C277.224 48.5151 277.55 48.8318 277.965 49.0634C278.379 49.2949 278.846 49.4102 279.365 49.4102C280.023 49.4102 280.581 49.2458 281.039 48.917V46.7611V46.7601Z" fill="#5B5B5B"/>
<path d="M287.062 49.5926C286.552 49.313 286.153 48.9241 285.864 48.4279C285.574 47.9318 285.429 47.3755 285.429 46.7601C285.429 46.1447 285.574 45.5894 285.864 45.0922C286.154 44.5961 286.554 44.2072 287.067 43.9275C287.579 43.6479 288.153 43.5076 288.787 43.5076C289.263 43.5076 289.702 43.5868 290.105 43.7451C290.507 43.9035 290.848 44.135 291.129 44.4397L290.7 44.8687C290.2 44.3635 289.569 44.11 288.806 44.11C288.3 44.11 287.84 44.2252 287.424 44.4568C287.01 44.6883 286.685 45.005 286.45 45.407C286.215 45.8089 286.098 46.2599 286.098 46.7591C286.098 47.2582 286.215 47.7093 286.45 48.1112C286.685 48.5131 287.01 48.8299 287.424 49.0614C287.839 49.2929 288.299 49.4082 288.806 49.4082C289.575 49.4082 290.206 49.1526 290.7 48.6404L291.129 49.0694C290.848 49.3741 290.506 49.6067 290.101 49.768C289.695 49.9294 289.255 50.0106 288.779 50.0106C288.145 50.0106 287.573 49.8703 287.064 49.5906L287.062 49.5926Z" fill="#5B5B5B"/>
<path d="M293.512 49.5876C292.996 49.304 292.594 48.9161 292.305 48.4229C292.015 47.9298 291.87 47.3755 291.87 46.7601C291.87 46.1447 292.015 45.5904 292.305 45.0972C292.595 44.6041 292.997 44.2152 293.512 43.9325C294.027 43.6489 294.602 43.5076 295.236 43.5076C295.87 43.5076 296.442 43.6479 296.951 43.9275C297.46 44.2082 297.861 44.5961 298.154 45.0922C298.447 45.5884 298.594 46.1447 298.594 46.7601C298.594 47.3755 298.447 47.9308 298.154 48.4279C297.861 48.9251 297.461 49.313 296.951 49.5926C296.441 49.8733 295.87 50.0126 295.236 50.0126C294.602 50.0126 294.027 49.8713 293.512 49.5876ZM296.609 49.0664C297.017 48.8379 297.337 48.5211 297.569 48.1162C297.801 47.7113 297.916 47.2592 297.916 46.7591C297.916 46.2589 297.8 45.8069 297.569 45.4019C297.337 44.997 297.017 44.6803 296.609 44.4517C296.2 44.2232 295.743 44.109 295.237 44.109C294.731 44.109 294.272 44.2232 293.86 44.4517C293.449 44.6803 293.126 44.997 292.891 45.4019C292.656 45.8069 292.538 46.2589 292.538 46.7591C292.538 47.2592 292.656 47.7113 292.891 48.1162C293.126 48.5211 293.449 48.8379 293.86 49.0664C294.272 49.2949 294.73 49.4092 295.237 49.4092C295.744 49.4092 296.2 49.2949 296.609 49.0664Z" fill="#5B5B5B"/>
<path d="M306.763 43.5618V49.9575H306.113V44.8407L303.598 49.1447H303.277L300.761 44.8688V49.9585H300.112V43.5628H300.67L303.451 48.3047L306.205 43.5628H306.763V43.5618Z" fill="#5B5B5B"/>
<path d="M313.166 44.1471C313.63 44.537 313.862 45.0732 313.862 45.7548C313.862 46.4364 313.63 46.9716 313.166 47.3585C312.703 47.7454 312.062 47.9389 311.246 47.9389H309.526V49.9585H308.848V43.5627H311.245C312.061 43.5627 312.702 43.7582 313.165 44.1471H313.166ZM312.682 46.9295C313.017 46.6529 313.184 46.261 313.184 45.7558C313.184 45.2506 313.017 44.8407 312.682 44.5631C312.347 44.2864 311.862 44.1471 311.228 44.1471H309.526V47.3455H311.228C311.862 47.3455 312.347 47.2072 312.682 46.9295Z" fill="#5B5B5B"/>
<path d="M319.021 48.2496H315.453L314.685 49.9585H313.98L316.908 43.5627H317.576L320.503 49.9585H319.79L319.021 48.2496ZM318.774 47.7013L317.238 44.2654L315.701 47.7013H318.775H318.774Z" fill="#5B5B5B"/>
<path d="M326.916 43.5618V49.9575H326.358L322.241 44.7676V49.9575H321.564V43.5618H322.122L326.248 48.7518V43.5618H326.915H326.916Z" fill="#5B5B5B"/>
<path d="M331.197 47.7464V49.9575H330.53V47.7464L327.969 43.5618H328.691L330.887 47.1531L333.083 43.5618H333.76L331.199 47.7464H331.197Z" fill="#5B5B5B"/>
</g>
<defs>
<linearGradient id="paint0_linear_1_729" x1="8.41174" y1="23.2236" x2="19.0832" y2="61.154" gradientUnits="userSpaceOnUse">
<stop stop-color="#487C2A"/>
<stop offset="1" stop-color="#335E33"/>
</linearGradient>
<linearGradient id="paint1_linear_1_729" x1="16.696" y1="60.9176" x2="31.0049" y2="22.8421" gradientUnits="userSpaceOnUse">
<stop stop-color="#93B734"/>
<stop offset="1" stop-color="#4B8200"/>
</linearGradient>
<linearGradient id="paint2_linear_1_729" x1="31.0467" y1="9.36853" x2="42.5194" y2="48.5015" gradientUnits="userSpaceOnUse">
<stop stop-color="#487C2A"/>
<stop offset="1" stop-color="#335E33"/>
</linearGradient>
<linearGradient id="paint3_linear_1_729" x1="41.2599" y1="54.5751" x2="56.6" y2="-3.65472" gradientUnits="userSpaceOnUse">
<stop stop-color="#93B734"/>
<stop offset="1" stop-color="#4B8200"/>
</linearGradient>
<clipPath id="clip0_1_729">
<rect width="334" height="58" fill="white"/>
</clipPath>
</defs>
</svg>
